<svg width="17" height="16" viewBox="0 0 17 16" fill="none" xmlns="http://www.w3.org/2000/svg">
<path d="M16.4437 14.1875L13.232 11.4406C14.1766 10.2195 14.6875 8.72656 14.6875 7.15625C14.6875 5.27656 13.9539 3.51406 12.6273 2.18516C11.3008 0.85625 9.53359 0.125 7.65625 0.125C5.77891 0.125 4.01172 0.858594 2.68516 2.18516C1.35625 3.51172 0.625 5.27656 0.625 7.15625C0.625 9.03359 1.35859 10.8008 2.68516 12.1273C4.01172 13.4562 5.77656 14.1875 7.65625 14.1875C9.22656 14.1875 10.7172 13.6766 11.9383 12.7344L15.1499 15.4789C15.1678 15.4968 15.189 15.5109 15.2123 15.5206C15.2356 15.5303 15.2606 15.5352 15.2859 15.5352C15.3111 15.5352 15.3361 15.5303 15.3594 15.5206C15.3828 15.5109 15.4039 15.4968 15.4218 15.4789L16.4437 14.4594C16.4615 14.4415 16.4757 14.4203 16.4854 14.397C16.495 14.3737 16.5 14.3487 16.5 14.3234C16.5 14.2982 16.495 14.2732 16.4854 14.2499C16.4757 14.2265 16.4615 14.2053 16.4437 14.1875ZM11.3688 10.8688C10.375 11.8602 9.05781 12.4062 7.65625 12.4062C6.25469 12.4062 4.9375 11.8602 3.94375 10.8688C2.95234 9.875 2.40625 8.55781 2.40625 7.15625C2.40625 5.75469 2.95234 4.43516 3.94375 3.44375C4.9375 2.45234 6.25469 1.90625 7.65625 1.90625C9.05781 1.90625 10.3773 2.45 11.3688 3.44375C12.3602 4.4375 12.9062 5.75469 12.9062 7.15625C12.9062 8.55781 12.3602 9.87734 11.3688 10.8688Z" fill="white"/>
</svg>
